<svg width="193" height="60" viewBox="0 0 193 60" fill="none" xmlns="http://www.w3.org/2000/svg">
<g filter="url(#filter0_d_479_2314)">
<path d="M182.167 1.02701C185.338 1.02701 187.907 3.43932 187.907 6.41622V44.9106C187.907 47.8875 185.338 50.2998 182.167 50.2998H11.3338C8.16315 50.2998 5.59382 47.8875 5.59382 44.9106V6.41622C5.59382 3.43932 8.16315 1.02701 11.3338 1.02701H182.167V1.02701ZM182.167 0.000488281H11.3338C7.57549 0.000488281 4.50049 2.88757 4.50049 6.41622V44.9106C4.50049 48.4392 7.57549 51.3263 11.3338 51.3263H182.167C185.925 51.3263 189 48.4392 189 44.9106V6.41622C189 2.88757 185.925 0.000488281 182.167 0.000488281Z" fill="white"/>
<path d="M69.3079 13.1406C69.3079 14.2185 68.9662 15.0782 68.2829 15.7069C67.5175 16.464 66.5062 16.8489 65.2762 16.8489C64.0872 16.8489 63.0895 16.464 62.2559 15.6941C61.4222 14.9242 61.0122 13.9618 61.0122 12.8327C61.0122 11.6907 61.4222 10.7411 62.2559 9.97124C63.0895 9.20135 64.0872 8.81641 65.2762 8.81641C65.8639 8.81641 66.4242 8.91906 66.9572 9.13719C67.4902 9.35533 67.9139 9.63762 68.2419 9.9969L67.5175 10.677C66.9709 10.0739 66.2329 9.76594 65.2762 9.76594C64.4152 9.76594 63.6635 10.0482 63.0349 10.6256C62.4062 11.1902 62.0919 11.9345 62.0919 12.8455C62.0919 13.7565 62.4062 14.5008 63.0349 15.0653C63.6635 15.6299 64.4152 15.925 65.2762 15.925C66.1919 15.925 66.9572 15.6428 67.5722 15.0653C67.9685 14.6932 68.2009 14.1671 68.2555 13.4999H65.2762V12.5632H69.2532C69.2805 12.7685 69.3079 12.961 69.3079 13.1406Z" fill="white" stroke="white" stroke-width="0.256629" stroke-miterlimit="10"/>
<path d="M75.6079 9.93293H71.8768V12.3709H75.2389V13.2948H71.8768V15.7327H75.6079V16.6823H70.8245V8.9834H75.6079V9.93293V9.93293Z" fill="white" stroke="white" stroke-width="0.256629" stroke-miterlimit="10"/>
<path d="M80.0493 16.6823H78.9969V9.93293H76.7009V8.9834H82.3316V9.93293H80.0356V16.6823H80.0493Z" fill="white" stroke="white" stroke-width="0.256629" stroke-miterlimit="10"/>
<path d="M86.4177 16.6823V8.9834H87.47V16.6823H86.4177Z" fill="white" stroke="white" stroke-width="0.256629" stroke-miterlimit="10"/>
<path d="M92.145 16.6823H91.0926V9.93293H88.7966V8.9834H94.4273V9.93293H92.1313V16.6823H92.145Z" fill="white" stroke="white" stroke-width="0.256629" stroke-miterlimit="10"/>
<path d="M105.1 15.6808C104.294 16.4635 103.296 16.8484 102.094 16.8484C100.891 16.8484 99.8933 16.4635 99.0869 15.6808C98.2806 14.898 97.8843 13.9485 97.8843 12.8322C97.8843 11.7158 98.2806 10.7535 99.0869 9.98358C99.8933 9.20086 100.891 8.81592 102.094 8.81592C103.283 8.81592 104.28 9.20086 105.1 9.98358C105.907 10.7663 106.317 11.7158 106.317 12.8322C106.303 13.9613 105.907 14.9109 105.1 15.6808ZM99.8659 15.0392C100.467 15.6166 101.219 15.8989 102.094 15.8989C102.968 15.8989 103.72 15.6166 104.321 15.0392C104.923 14.4618 105.237 13.7304 105.237 12.8322C105.237 11.934 104.936 11.2026 104.321 10.6252C103.72 10.0477 102.968 9.75262 102.094 9.75262C101.219 9.75262 100.467 10.0349 99.8659 10.6123C99.2646 11.2026 98.9503 11.934 98.9503 12.8322C98.9503 13.7304 99.2646 14.4618 99.8659 15.0392Z" fill="white" stroke="white" stroke-width="0.256629" stroke-miterlimit="10"/>
<path d="M107.793 16.6823V8.9834H109.078L113.068 14.9757H113.109L113.068 13.4872V8.9834H114.121V16.6823H113.027L108.859 10.4077H108.818L108.859 11.8961V16.6823H107.793Z" fill="white" stroke="white" stroke-width="0.256629" stroke-miterlimit="10"/>
<path d="M97.6252 27.9087C94.4135 27.9087 91.7895 30.2056 91.7895 33.3621C91.7895 36.5058 94.4135 38.8155 97.6252 38.8155C100.837 38.8155 103.461 36.5058 103.461 33.3621C103.461 30.2056 100.837 27.9087 97.6252 27.9087ZM97.6252 36.6726C95.8622 36.6726 94.3452 35.3125 94.3452 33.3621C94.3452 31.3989 95.8622 30.0516 97.6252 30.0516C99.3882 30.0516 100.905 31.3989 100.905 33.3621C100.905 35.3125 99.3745 36.6726 97.6252 36.6726ZM84.8879 27.9087C81.6762 27.9087 79.0522 30.2056 79.0522 33.3621C79.0522 36.5058 81.6762 38.8155 84.8879 38.8155C88.0995 38.8155 90.7235 36.5058 90.7235 33.3621C90.7235 30.2056 88.0995 27.9087 84.8879 27.9087ZM84.8879 36.6726C83.1249 36.6726 81.6079 35.3125 81.6079 33.3621C81.6079 31.3989 83.1249 30.0516 84.8879 30.0516C86.6509 30.0516 88.1679 31.3989 88.1679 33.3621C88.1679 35.3125 86.6509 36.6726 84.8879 36.6726ZM69.7453 29.5896V31.8993H75.6492C75.4716 33.1953 75.0069 34.1577 74.3099 34.8121C73.4489 35.6204 72.1096 36.5058 69.7589 36.5058C66.1236 36.5058 63.2809 33.7599 63.2809 30.3467C63.2809 26.9335 66.1236 24.1876 69.7589 24.1876C71.7133 24.1876 73.1482 24.9062 74.2006 25.8429L75.9362 24.2133C74.4602 22.8916 72.5059 21.8779 69.7453 21.8779C64.7706 21.8779 60.5886 25.676 60.5886 30.3595C60.5886 35.0302 64.7706 38.8411 69.7453 38.8411C72.4376 38.8411 74.4602 38.0199 76.0456 36.4673C77.6719 34.9404 78.1776 32.7847 78.1776 31.0524C78.1776 30.5135 78.1366 30.0131 78.0409 29.6025H69.7453V29.5896ZM131.669 31.3861C131.19 30.1671 129.714 27.9087 126.694 27.9087C123.701 27.9087 121.214 30.1157 121.214 33.3621C121.214 36.416 123.674 38.8155 126.981 38.8155C129.646 38.8155 131.19 37.2885 131.819 36.4032L129.837 35.1585C129.181 36.0695 128.279 36.6726 126.981 36.6726C125.683 36.6726 124.753 36.108 124.166 35.0174L131.942 32.002L131.669 31.3861ZM123.742 33.2081C123.674 31.1038 125.478 30.0259 126.776 30.0259C127.787 30.0259 128.648 30.5007 128.935 31.1808L123.742 33.2081ZM117.428 38.4947H119.984V22.4553H117.428V38.4947ZM113.246 29.1277H113.15C112.576 28.4861 111.483 27.9087 110.089 27.9087C107.178 27.9087 104.513 30.3082 104.513 33.3878C104.513 36.4417 107.178 38.8283 110.089 38.8283C111.469 38.8283 112.576 38.2509 113.15 37.5837H113.232V38.3664C113.232 40.4579 112.043 41.5743 110.13 41.5743C108.572 41.5743 107.602 40.5221 107.205 39.6367L104.978 40.5092C105.62 41.9592 107.315 43.7299 110.13 43.7299C113.123 43.7299 115.651 42.0747 115.651 38.0456V28.2423H113.232V29.1277H113.246ZM110.308 36.6726C108.545 36.6726 107.069 35.2868 107.069 33.3878C107.069 31.463 108.545 30.0644 110.308 30.0644C112.043 30.0644 113.41 31.4759 113.41 33.3878C113.424 35.2868 112.057 36.6726 110.308 36.6726ZM143.641 22.4553H137.532V38.4947H140.087V32.4126H143.654C146.483 32.4126 149.258 30.4879 149.258 27.434C149.258 24.3801 146.456 22.4553 143.641 22.4553ZM143.695 30.1799H140.074V24.6752H143.695C145.609 24.6752 146.688 26.1636 146.688 27.4211C146.688 28.6786 145.609 30.1799 143.695 30.1799ZM159.467 27.8831C157.622 27.8831 155.708 28.653 154.916 30.3339L157.184 31.2192C157.663 30.3339 158.565 30.0388 159.508 30.0388C160.833 30.0388 162.173 30.783 162.186 32.1046V32.2714C161.722 32.0276 160.738 31.6555 159.521 31.6555C157.075 31.6555 154.601 32.913 154.601 35.2612C154.601 37.404 156.597 38.7898 158.838 38.7898C160.546 38.7898 161.503 38.0713 162.091 37.2244H162.173V38.469H164.633V32.3228C164.646 29.4742 162.378 27.8831 159.467 27.8831ZM159.152 36.6726C158.319 36.6726 157.157 36.2749 157.157 35.3125C157.157 34.0807 158.606 33.6059 159.863 33.6059C160.984 33.6059 161.517 33.8369 162.186 34.1448C161.995 35.6204 160.628 36.6726 159.152 36.6726ZM173.612 28.2295L170.687 35.1842H170.605L167.571 28.2295H164.824L169.375 37.9558L166.778 43.3578H169.443L176.454 28.2295H173.612ZM150.652 38.4947H153.207V22.4553H150.652V38.4947Z" fill="white"/>
<path d="M18.7686 9.67527C18.3722 10.073 18.1399 10.689 18.1399 11.4717V39.8549C18.1399 40.6505 18.3722 41.2664 18.7686 41.6513L18.8642 41.7412L35.7972 25.8558V25.6633V25.4708L18.8642 9.58545L18.7686 9.67527Z" fill="url(#paint0_linear_479_2314)"/>
<path d="M41.4435 31.1552L35.7991 25.8558V25.6633V25.4708L41.4435 20.1714L41.5665 20.2355L48.2495 23.8027C50.1629 24.8164 50.1629 26.4845 48.2495 27.511L41.5665 31.0782L41.4435 31.1552Z" fill="url(#paint1_linear_479_2314)"/>
<path d="M41.5657 31.0913L35.7984 25.6636L18.7698 41.6516C19.3984 42.2803 20.4371 42.3573 21.6124 41.7286L41.5657 31.0913Z" fill="url(#paint2_linear_479_2314)"/>
<path d="M41.5651 20.2485L21.5983 9.5984C20.4229 8.96966 19.3843 9.04665 18.7556 9.67539L35.7978 25.6634L41.5651 20.2485Z" fill="url(#paint3_linear_479_2314)"/>
<path opacity="0.2" d="M41.4414 30.9629L21.5975 41.5488C20.4905 42.1391 19.4929 42.1006 18.8642 41.5617L18.7686 41.6515L18.8642 41.7413C19.5066 42.2802 20.4905 42.3187 21.5975 41.7285L41.5644 31.0784L41.4414 30.9629Z" fill="black"/>
<path opacity="0.12" d="M18.7674 41.4717C18.371 41.0739 18.1387 40.458 18.1387 39.6753V39.8678C18.1387 40.6633 18.371 41.2792 18.7674 41.6642L18.8631 41.5743L18.7674 41.4717Z" fill="black"/>
<path opacity="0.12" d="M48.2489 27.3317L41.4292 30.9629L41.5522 31.0784L48.2352 27.5113C49.1919 26.998 49.6702 26.3308 49.6702 25.6636C49.6019 26.2666 49.1235 26.8697 48.2489 27.3317Z" fill="black"/>
<path opacity="0.25" d="M21.5983 9.77903L48.2484 23.9963C49.1094 24.4582 49.6014 25.0485 49.6834 25.6644C49.6834 24.9971 49.205 24.3171 48.2484 23.8167L21.5983 9.59939C19.685 8.58571 18.127 9.43258 18.127 11.4856V11.6781C18.127 9.61223 19.6986 8.76535 21.5983 9.77903Z" fill="white"/>
</g>
<defs>
<filter id="filter0_d_479_2314" x="0.500488" y="0.000488281" width="192.5" height="59.3257" filterUnits="userSpaceOnUse" color-interpolation-filters="sRGB">
<feFlood flood-opacity="0" result="BackgroundImageFix"/>
<feColorMatrix in="SourceAlpha" type="matrix" values="0 0 0 0 0 0 0 0 0 0 0 0 0 0 0 0 0 0 127 0" result="hardAlpha"/>
<feOffset dy="4"/>
<feGaussianBlur stdDeviation="2"/>
<feComposite in2="hardAlpha" operator="out"/>
<feColorMatrix type="matrix" values="0 0 0 0 0 0 0 0 0 0 0 0 0 0 0 0 0 0 0.25 0"/>
<feBlend mode="normal" in2="BackgroundImageFix" result="effect1_dropShadow_479_2314"/>
<feBlend mode="normal" in="SourceGraphic" in2="effect1_dropShadow_479_2314" result="shape"/>
</filter>
<linearGradient id="paint0_linear_479_2314" x1="34.2934" y1="11.1763" x2="12.8018" y2="34.0667" gradientUnits="userSpaceOnUse">
<stop stop-color="#00A0FF"/>
<stop offset="0.00657445" stop-color="#00A1FF"/>
<stop offset="0.2601" stop-color="#00BEFF"/>
<stop offset="0.5122" stop-color="#00D2FF"/>
<stop offset="0.7604" stop-color="#00DFFF"/>
<stop offset="1" stop-color="#00E3FF"/>
</linearGradient>
<linearGradient id="paint1_linear_479_2314" x1="50.7427" y1="25.6652" x2="17.6734" y2="25.6652" gradientUnits="userSpaceOnUse">
<stop stop-color="#FFE000"/>
<stop offset="0.4087" stop-color="#FFBD00"/>
<stop offset="0.7754" stop-color="#FFA500"/>
<stop offset="1" stop-color="#FF9C00"/>
</linearGradient>
<linearGradient id="paint2_linear_479_2314" x1="38.4318" y1="28.6099" x2="9.28748" y2="59.6511" gradientUnits="userSpaceOnUse">
<stop stop-color="#FF3A44"/>
<stop offset="1" stop-color="#C31162"/>
</linearGradient>
<linearGradient id="paint3_linear_479_2314" x1="14.4742" y1="0.226677" x2="27.4884" y2="14.0878" gradientUnits="userSpaceOnUse">
<stop stop-color="#32A071"/>
<stop offset="0.0685" stop-color="#2DA771"/>
<stop offset="0.4762" stop-color="#15CF74"/>
<stop offset="0.8009" stop-color="#06E775"/>
<stop offset="1" stop-color="#00F076"/>
</linearGradient>
</defs>
</svg>
